<svg fill="none" viewBox="3 2 18 18" xmlns="http://www.w3.org/2000/svg">
	<title>LingInk</title>
	<path
		d="M18.8 7.4C17.2 4.3 13.6 2.7 10.2 3.7C6.6 4.8 4.4 8.3 5.1 11.9C5.8 15.6 9.3 18.1 13 17.4C15.6 16.9 17.6 15.1 18.4 12.7"
		stroke="currentColor"
		stroke-linecap="round"
		stroke-width="1.7"
	/>
	<path
		d="M17.2 5.6C14.2 3.8 10.1 4.7 8 7.6C6.1 10.3 6.6 14.2 9.1 16.4"
		stroke="currentColor"
		stroke-linecap="round"
		stroke-width="0.9"
	/>
	<path
		d="M8.8 12.6C11.7 11.3 15.5 11.4 17.4 12.8C15.5 12.4 12.7 12.7 10.7 13.8C9.3 14.5 9.4 15.4 11.8 15.6C13.9 15.8 16 16.1 17.3 17.4"
		stroke="currentColor"
		stroke-linecap="round"
		stroke-width="1.25"
	/>
	<path d="M7.5 17.1C10.9 19.6 15.8 18.7 18.1 15.1" stroke="currentColor" stroke-linecap="round" stroke-width="0.95" />
	<circle cx="14.5" cy="7.7" fill="currentColor" r="1.8" />
	<path d="M13.9 11.1C14.9 10.7 16 10.6 16.9 10.9" stroke="currentColor" stroke-linecap="round" stroke-width="0.75" />
</svg>
