<?xml version="1.0" encoding="UTF-8"?>
<svg width="92px" height="96px" viewBox="0 0 92 96" version="1.1" xmlns="http://www.w3.org/2000/svg">
    <title>LingInk</title>
    <g fill="#24292F" fill-rule="evenodd">
        <path d="M12 15C12 10.5817 15.5817 7 20 7H41C44.3137 7 47 9.68629 47 13V83C47 86.3137 44.3137 89 41 89H20C15.5817 89 12 85.4183 12 81V15ZM23 23C20.7909 23 19 24.7909 19 27C19 29.2091 20.7909 31 23 31H36C38.2091 31 40 29.2091 40 27C40 24.7909 38.2091 23 36 23H23ZM23 39C20.7909 39 19 40.7909 19 43C19 45.2091 20.7909 47 23 47H34C36.2091 47 38 45.2091 38 43C38 40.7909 36.2091 39 34 39H23Z"/>
        <path d="M45 13C45 9.68629 47.6863 7 51 7H72C76.4183 7 80 10.5817 80 15V81C80 85.4183 76.4183 89 72 89H51C47.6863 89 45 86.3137 45 83V13ZM56.5023 33.5043C58.2398 29.5537 63.7602 29.5537 65.4977 33.5043L72.3411 49.0601C76.8281 59.2594 69.4853 71 61 71C52.5147 71 45.1719 59.2594 49.6589 49.0601L56.5023 33.5043ZM61 47C58.7909 47 57 48.7909 57 51C57 53.2091 58.7909 55 61 55C63.2091 55 65 53.2091 65 51C65 48.7909 63.2091 47 61 47Z"/>
    </g>
</svg>
